<svg width="83" height="83" viewBox="0 0 83 83" fill="none" xmlns="http://www.w3.org/2000/svg">
<rect width="83" height="83" rx="41.5" fill="#1E293B"/>
<path d="M39.6667 52.5C38.3833 52.5 37.2847 52.0431 36.3708 51.1292C35.4569 50.2153 35 49.1167 35 47.8333C35 46.55 35.4569 45.4514 36.3708 44.5375C37.2847 43.6236 38.3833 43.1667 39.6667 43.1667C40.1139 43.1667 40.5222 43.225 40.8917 43.3417C41.2806 43.4389 41.65 43.5944 42 43.8083V31.5H49V36.1667H44.3333V47.8333C44.3333 49.1167 43.8764 50.2153 42.9625 51.1292C42.0486 52.0431 40.95 52.5 39.6667 52.5Z" fill="#E6E0E9"/>
</svg>
